<mxfile host="app.diagrams.net" modified="2021-08-07T13:55:30.664Z" agent="5.0 (Windows NT 10.0; Win64; x64) AppleWebKit/537.36 (KHTML, like Gecko) Chrome/92.0.4515.131 Safari/537.36" etag="YjYLGdNQhZEiTToIRg7t" version="14.9.5" type="github">
  <diagram id="rnWuezDNMW71eREbhoyn" name="Page-1">
    <mxGraphModel dx="1888" dy="579" grid="1" gridSize="10" guides="1" tooltips="1" connect="1" arrows="1" fold="1" page="1" pageScale="1" pageWidth="850" pageHeight="1100" math="0" shadow="0">
      <root>
        <mxCell id="0" />
        <mxCell id="1" parent="0" />
        <mxCell id="7_TfvVV6yA6XL2RTCpmT-36" value="connects" style="edgeStyle=orthogonalEdgeStyle;rounded=0;orthogonalLoop=1;jettySize=auto;html=1;entryX=0.16;entryY=0.55;entryDx=0;entryDy=0;entryPerimeter=0;startArrow=classic;startFill=1;" parent="1" source="7_TfvVV6yA6XL2RTCpmT-3" target="7_TfvVV6yA6XL2RTCpmT-9" edge="1">
          <mxGeometry relative="1" as="geometry" />
        </mxCell>
        <mxCell id="7_TfvVV6yA6XL2RTCpmT-3" value="Parity Node&lt;br&gt;&lt;i&gt;(Ethereum)&lt;/i&gt;" style="rounded=1;whiteSpace=wrap;html=1;fontStyle=1" parent="1" vertex="1">
          <mxGeometry x="420" y="440" width="100" height="60" as="geometry" />
        </mxCell>
        <mxCell id="7_TfvVV6yA6XL2RTCpmT-4" value="Discord" style="rounded=0;whiteSpace=wrap;html=1;sketch=1;" parent="1" vertex="1">
          <mxGeometry x="-140" y="350" width="120" height="60" as="geometry" />
        </mxCell>
        <mxCell id="7_TfvVV6yA6XL2RTCpmT-5" value="User" style="shape=umlActor;verticalLabelPosition=bottom;verticalAlign=top;html=1;outlineConnect=0;fontStyle=1" parent="1" vertex="1">
          <mxGeometry x="-310" y="310" width="30" height="60" as="geometry" />
        </mxCell>
        <mxCell id="7_TfvVV6yA6XL2RTCpmT-9" value="Ethereum&lt;br&gt;Nodes" style="ellipse;shape=cloud;whiteSpace=wrap;html=1;" parent="1" vertex="1">
          <mxGeometry x="652.5" y="437" width="95" height="60" as="geometry" />
        </mxCell>
        <mxCell id="7_TfvVV6yA6XL2RTCpmT-8" value="Web UI" style="rounded=0;whiteSpace=wrap;html=1;sketch=1;" parent="1" vertex="1">
          <mxGeometry x="-140" y="210" width="120" height="60" as="geometry" />
        </mxCell>
        <mxCell id="7_TfvVV6yA6XL2RTCpmT-10" value="Apocryph DAO" style="rounded=0;whiteSpace=wrap;html=1;" parent="1" vertex="1">
          <mxGeometry x="620" y="322.5" width="120" height="60" as="geometry" />
        </mxCell>
        <mxCell id="7_TfvVV6yA6XL2RTCpmT-11" value="Apocryph DAO" style="rounded=0;whiteSpace=wrap;html=1;" parent="1" vertex="1">
          <mxGeometry x="630" y="332.5" width="120" height="60" as="geometry" />
        </mxCell>
        <mxCell id="7_TfvVV6yA6XL2RTCpmT-12" value="DAO&lt;br&gt;&lt;i&gt;Smart Contracts&lt;/i&gt;" style="rounded=0;whiteSpace=wrap;html=1;" parent="1" vertex="1">
          <mxGeometry x="640" y="342.5" width="120" height="60" as="geometry" />
        </mxCell>
        <mxCell id="7_TfvVV6yA6XL2RTCpmT-48" style="edgeStyle=orthogonalEdgeStyle;rounded=0;orthogonalLoop=1;jettySize=auto;html=1;entryX=1;entryY=0.5;entryDx=0;entryDy=0;startArrow=none;startFill=0;" parent="1" source="7_TfvVV6yA6XL2RTCpmT-13" target="7_TfvVV6yA6XL2RTCpmT-40" edge="1">
          <mxGeometry relative="1" as="geometry" />
        </mxCell>
        <mxCell id="7_TfvVV6yA6XL2RTCpmT-68" value="stream" style="edgeLabel;html=1;align=center;verticalAlign=middle;resizable=0;points=[];" parent="7_TfvVV6yA6XL2RTCpmT-48" vertex="1" connectable="0">
          <mxGeometry x="-0.1477" y="2" relative="1" as="geometry">
            <mxPoint as="offset" />
          </mxGeometry>
        </mxCell>
        <mxCell id="7_TfvVV6yA6XL2RTCpmT-13" value="Ingest DAO&lt;br&gt;Transactions" style="rounded=1;whiteSpace=wrap;html=1;fillColor=#dae8fc;strokeColor=#6c8ebf;" parent="1" vertex="1">
          <mxGeometry x="280" y="382.5" width="120" height="37.5" as="geometry" />
        </mxCell>
        <mxCell id="7_TfvVV6yA6XL2RTCpmT-6" value="Wallet" style="rounded=0;whiteSpace=wrap;html=1;sketch=1;" parent="1" vertex="1">
          <mxGeometry x="-140" y="280" width="120" height="60" as="geometry" />
        </mxCell>
        <mxCell id="7_TfvVV6yA6XL2RTCpmT-7" value="Web3" style="rounded=0;whiteSpace=wrap;html=1;sketch=1;" parent="1" vertex="1">
          <mxGeometry x="-170" y="257" width="60" height="30" as="geometry" />
        </mxCell>
        <mxCell id="7_TfvVV6yA6XL2RTCpmT-22" value="" style="endArrow=classic;html=1;exitX=1;exitY=0.3333333333333333;exitDx=0;exitDy=0;exitPerimeter=0;entryX=0;entryY=0.5;entryDx=0;entryDy=0;" parent="1" source="7_TfvVV6yA6XL2RTCpmT-5" target="7_TfvVV6yA6XL2RTCpmT-4" edge="1">
          <mxGeometry width="50" height="50" relative="1" as="geometry">
            <mxPoint x="-40" y="320" as="sourcePoint" />
            <mxPoint x="10" y="270" as="targetPoint" />
          </mxGeometry>
        </mxCell>
        <mxCell id="7_TfvVV6yA6XL2RTCpmT-25" value="Send&lt;br&gt;Commands" style="edgeLabel;html=1;align=center;verticalAlign=middle;resizable=0;points=[];" parent="7_TfvVV6yA6XL2RTCpmT-22" vertex="1" connectable="0">
          <mxGeometry x="-0.1092" y="-2" relative="1" as="geometry">
            <mxPoint as="offset" />
          </mxGeometry>
        </mxCell>
        <mxCell id="7_TfvVV6yA6XL2RTCpmT-23" value="" style="endArrow=classic;html=1;exitX=1;exitY=0.3333333333333333;exitDx=0;exitDy=0;exitPerimeter=0;entryX=0;entryY=0.5;entryDx=0;entryDy=0;" parent="1" source="7_TfvVV6yA6XL2RTCpmT-5" target="7_TfvVV6yA6XL2RTCpmT-7" edge="1">
          <mxGeometry width="50" height="50" relative="1" as="geometry">
            <mxPoint x="-290" y="310" as="sourcePoint" />
            <mxPoint x="-210" y="260" as="targetPoint" />
          </mxGeometry>
        </mxCell>
        <mxCell id="7_TfvVV6yA6XL2RTCpmT-24" value="Sign &lt;br&gt;Transactions" style="edgeLabel;html=1;align=center;verticalAlign=middle;resizable=0;points=[];" parent="7_TfvVV6yA6XL2RTCpmT-23" vertex="1" connectable="0">
          <mxGeometry x="0.2177" y="-1" relative="1" as="geometry">
            <mxPoint as="offset" />
          </mxGeometry>
        </mxCell>
        <mxCell id="7_TfvVV6yA6XL2RTCpmT-29" value="User &lt;br&gt;Device" style="verticalLabelPosition=bottom;html=1;verticalAlign=top;align=center;strokeColor=none;shape=mxgraph.azure.mobile;pointerEvents=1;fillColor=#000000;fontStyle=1" parent="1" vertex="1">
          <mxGeometry x="-97.5" y="533" width="35" height="50" as="geometry" />
        </mxCell>
        <mxCell id="7_TfvVV6yA6XL2RTCpmT-33" value="Ethereum&lt;br&gt;Network" style="shape=image;html=1;verticalAlign=top;verticalLabelPosition=bottom;labelBackgroundColor=#ffffff;imageAspect=0;aspect=fixed;image=https://cdn4.iconfinder.com/data/icons/logos-brands-5/24/ethereum-128.png;fillColor=#000000;fontStyle=1" parent="1" vertex="1">
          <mxGeometry x="667" y="531.5" width="49" height="49" as="geometry" />
        </mxCell>
        <mxCell id="7_TfvVV6yA6XL2RTCpmT-37" value="&lt;b&gt;Perper Application&lt;/b&gt;" style="rounded=1;whiteSpace=wrap;html=1;fillColor=#FFFFFF;" parent="1" vertex="1">
          <mxGeometry x="40" y="440" width="360" height="60" as="geometry" />
        </mxCell>
        <mxCell id="7_TfvVV6yA6XL2RTCpmT-31" value="&lt;b&gt;Centralized&lt;br&gt;Server&lt;br&gt;&lt;/b&gt;" style="aspect=fixed;html=1;points=[];align=center;image;fontSize=12;image=img/lib/mscae/Kubernetes.svg;fillColor=#000000;" parent="1" vertex="1">
          <mxGeometry x="255" y="535" width="50" height="48" as="geometry" />
        </mxCell>
        <mxCell id="7_TfvVV6yA6XL2RTCpmT-40" value="Events" style="rounded=1;whiteSpace=wrap;html=1;fillColor=#dae8fc;strokeColor=#6c8ebf;" parent="1" vertex="1">
          <mxGeometry x="40" y="382" width="80" height="37.5" as="geometry" />
        </mxCell>
        <mxCell id="7_TfvVV6yA6XL2RTCpmT-46" value="calls" style="edgeStyle=orthogonalEdgeStyle;rounded=0;orthogonalLoop=1;jettySize=auto;html=1;startArrow=classic;startFill=1;" parent="1" target="7_TfvVV6yA6XL2RTCpmT-44" edge="1">
          <mxGeometry relative="1" as="geometry">
            <mxPoint x="122" y="341" as="sourcePoint" />
          </mxGeometry>
        </mxCell>
        <mxCell id="7_TfvVV6yA6XL2RTCpmT-52" value="calls" style="edgeStyle=orthogonalEdgeStyle;rounded=0;orthogonalLoop=1;jettySize=auto;html=1;exitX=1;exitY=0.25;exitDx=0;exitDy=0;startArrow=classic;startFill=1;" parent="1" source="7_TfvVV6yA6XL2RTCpmT-43" target="7_TfvVV6yA6XL2RTCpmT-51" edge="1">
          <mxGeometry relative="1" as="geometry" />
        </mxCell>
        <mxCell id="7_TfvVV6yA6XL2RTCpmT-43" value="Commands" style="rounded=1;whiteSpace=wrap;html=1;sketch=0;fillColor=#dae8fc;strokeColor=#6c8ebf;" parent="1" vertex="1">
          <mxGeometry x="40" y="258.75" width="80" height="101.25" as="geometry" />
        </mxCell>
        <mxCell id="7_TfvVV6yA6XL2RTCpmT-47" style="edgeStyle=orthogonalEdgeStyle;rounded=0;orthogonalLoop=1;jettySize=auto;html=1;entryX=0.5;entryY=0;entryDx=0;entryDy=0;startArrow=classic;startFill=1;" parent="1" source="7_TfvVV6yA6XL2RTCpmT-44" target="7_TfvVV6yA6XL2RTCpmT-13" edge="1">
          <mxGeometry relative="1" as="geometry" />
        </mxCell>
        <mxCell id="7_TfvVV6yA6XL2RTCpmT-67" value="filter" style="edgeLabel;html=1;align=center;verticalAlign=middle;resizable=0;points=[];" parent="7_TfvVV6yA6XL2RTCpmT-47" vertex="1" connectable="0">
          <mxGeometry x="0.066" relative="1" as="geometry">
            <mxPoint x="-20" y="-1" as="offset" />
          </mxGeometry>
        </mxCell>
        <mxCell id="7_TfvVV6yA6XL2RTCpmT-44" value="Queries" style="rounded=0;whiteSpace=wrap;html=1;sketch=0;fillColor=#f5f5f5;strokeColor=#666666;fontColor=#333333;" parent="1" vertex="1">
          <mxGeometry x="180" y="322.5" width="80" height="37.5" as="geometry" />
        </mxCell>
        <mxCell id="7_TfvVV6yA6XL2RTCpmT-61" value="invokes" style="edgeStyle=orthogonalEdgeStyle;rounded=0;orthogonalLoop=1;jettySize=auto;html=1;entryX=0.567;entryY=0.022;entryDx=0;entryDy=0;entryPerimeter=0;startArrow=none;startFill=0;dashed=1;" parent="1" source="7_TfvVV6yA6XL2RTCpmT-51" target="7_TfvVV6yA6XL2RTCpmT-10" edge="1">
          <mxGeometry relative="1" as="geometry" />
        </mxCell>
        <mxCell id="7_TfvVV6yA6XL2RTCpmT-51" value="Transactions" style="rounded=0;whiteSpace=wrap;html=1;sketch=0;fillColor=#f5f5f5;strokeColor=#666666;fontColor=#333333;" parent="1" vertex="1">
          <mxGeometry x="180" y="267" width="80" height="37.5" as="geometry" />
        </mxCell>
        <mxCell id="7_TfvVV6yA6XL2RTCpmT-55" value="HTML / JS" style="edgeStyle=orthogonalEdgeStyle;rounded=0;orthogonalLoop=1;jettySize=auto;html=1;entryX=0.5;entryY=0;entryDx=0;entryDy=0;startArrow=none;startFill=0;" parent="1" source="7_TfvVV6yA6XL2RTCpmT-53" target="7_TfvVV6yA6XL2RTCpmT-8" edge="1">
          <mxGeometry relative="1" as="geometry">
            <Array as="points">
              <mxPoint x="-80" y="180" />
              <mxPoint x="-80" y="180" />
            </Array>
          </mxGeometry>
        </mxCell>
        <mxCell id="7_TfvVV6yA6XL2RTCpmT-53" value="IPFS" style="rounded=1;whiteSpace=wrap;html=1;sketch=0;fillColor=#FFFFFF;dashed=1;" parent="1" vertex="1">
          <mxGeometry x="-140" y="130" width="410" height="30" as="geometry" />
        </mxCell>
        <mxCell id="7_TfvVV6yA6XL2RTCpmT-58" value="" style="rounded=0;whiteSpace=wrap;html=1;" parent="1" vertex="1">
          <mxGeometry x="10" y="40" width="70" height="40" as="geometry" />
        </mxCell>
        <mxCell id="7_TfvVV6yA6XL2RTCpmT-59" value="" style="rounded=0;whiteSpace=wrap;html=1;" parent="1" vertex="1">
          <mxGeometry x="20" y="50" width="70" height="40" as="geometry" />
        </mxCell>
        <mxCell id="7_TfvVV6yA6XL2RTCpmT-70" value="" style="edgeStyle=orthogonalEdgeStyle;rounded=0;orthogonalLoop=1;jettySize=auto;html=1;startArrow=none;startFill=0;" parent="1" source="7_TfvVV6yA6XL2RTCpmT-60" target="7_TfvVV6yA6XL2RTCpmT-53" edge="1">
          <mxGeometry relative="1" as="geometry" />
        </mxCell>
        <mxCell id="7_TfvVV6yA6XL2RTCpmT-60" value="Micro &lt;br&gt;Frontends" style="rounded=0;whiteSpace=wrap;html=1;" parent="1" vertex="1">
          <mxGeometry x="30" y="60" width="70" height="40" as="geometry" />
        </mxCell>
        <mxCell id="7_TfvVV6yA6XL2RTCpmT-63" value="" style="shape=curlyBracket;whiteSpace=wrap;html=1;rounded=1;sketch=0;fillColor=#FFFFFF;rotation=-90;" parent="1" vertex="1">
          <mxGeometry x="-90" y="460" width="20" height="120" as="geometry" />
        </mxCell>
        <mxCell id="7_TfvVV6yA6XL2RTCpmT-64" value="" style="shape=curlyBracket;whiteSpace=wrap;html=1;rounded=1;sketch=0;fillColor=#FFFFFF;rotation=-90;" parent="1" vertex="1">
          <mxGeometry x="270" y="270" width="20" height="500" as="geometry" />
        </mxCell>
        <mxCell id="7_TfvVV6yA6XL2RTCpmT-65" value="" style="shape=curlyBracket;whiteSpace=wrap;html=1;rounded=1;sketch=0;fillColor=#FFFFFF;rotation=-90;" parent="1" vertex="1">
          <mxGeometry x="681.5" y="445.5" width="20" height="143" as="geometry" />
        </mxCell>
        <mxCell id="7_TfvVV6yA6XL2RTCpmT-72" value="" style="edgeStyle=orthogonalEdgeStyle;rounded=0;orthogonalLoop=1;jettySize=auto;html=1;startArrow=none;startFill=0;exitX=1;exitY=0.5;exitDx=0;exitDy=0;" parent="1" source="7_TfvVV6yA6XL2RTCpmT-71" target="7_TfvVV6yA6XL2RTCpmT-3" edge="1">
          <mxGeometry relative="1" as="geometry">
            <Array as="points">
              <mxPoint x="470" y="401" />
            </Array>
          </mxGeometry>
        </mxCell>
        <mxCell id="7_TfvVV6yA6XL2RTCpmT-71" value="Nethereum" style="rounded=0;whiteSpace=wrap;html=1;sketch=0;horizontal=1;" parent="1" vertex="1">
          <mxGeometry x="390" y="388.43" width="70" height="25.63" as="geometry" />
        </mxCell>
        <mxCell id="E6ZG-mlLFBpx1Wo-e1lC-3" value="calls" style="edgeStyle=orthogonalEdgeStyle;rounded=0;orthogonalLoop=1;jettySize=auto;html=1;entryX=0.5;entryY=0;entryDx=0;entryDy=0;exitX=1;exitY=0.75;exitDx=0;exitDy=0;startArrow=classic;startFill=1;" edge="1" parent="1" source="E6ZG-mlLFBpx1Wo-e1lC-2" target="7_TfvVV6yA6XL2RTCpmT-51">
          <mxGeometry x="-0.5242" relative="1" as="geometry">
            <Array as="points">
              <mxPoint x="220" y="241" />
            </Array>
            <mxPoint as="offset" />
          </mxGeometry>
        </mxCell>
        <mxCell id="E6ZG-mlLFBpx1Wo-e1lC-2" value="Voting" style="rounded=1;whiteSpace=wrap;html=1;sketch=0;fillColor=#dae8fc;strokeColor=#6c8ebf;" vertex="1" parent="1">
          <mxGeometry x="40" y="210" width="80" height="41.25" as="geometry" />
        </mxCell>
        <mxCell id="7_TfvVV6yA6XL2RTCpmT-49" value="Discord.NET" style="rounded=0;whiteSpace=wrap;html=1;sketch=0;horizontal=0;" parent="1" vertex="1">
          <mxGeometry x="16" y="228.75" width="30" height="181.25" as="geometry" />
        </mxCell>
        <mxCell id="E6ZG-mlLFBpx1Wo-e1lC-4" style="edgeStyle=orthogonalEdgeStyle;rounded=0;orthogonalLoop=1;jettySize=auto;html=1;startArrow=none;startFill=0;exitX=0.75;exitY=0;exitDx=0;exitDy=0;" edge="1" parent="1" source="7_TfvVV6yA6XL2RTCpmT-13">
          <mxGeometry relative="1" as="geometry">
            <mxPoint x="290" y="411.29999999999995" as="sourcePoint" />
            <mxPoint x="120" y="220" as="targetPoint" />
            <Array as="points">
              <mxPoint x="370" y="220" />
            </Array>
          </mxGeometry>
        </mxCell>
        <mxCell id="E6ZG-mlLFBpx1Wo-e1lC-5" value="stream" style="edgeLabel;html=1;align=center;verticalAlign=middle;resizable=0;points=[];" vertex="1" connectable="0" parent="E6ZG-mlLFBpx1Wo-e1lC-4">
          <mxGeometry x="-0.1477" y="2" relative="1" as="geometry">
            <mxPoint x="-51" as="offset" />
          </mxGeometry>
        </mxCell>
        <mxCell id="E6ZG-mlLFBpx1Wo-e1lC-6" value="" style="endArrow=classic;startArrow=classic;html=1;entryX=1;entryY=0.5;entryDx=0;entryDy=0;" edge="1" parent="1" target="7_TfvVV6yA6XL2RTCpmT-4">
          <mxGeometry width="50" height="50" relative="1" as="geometry">
            <mxPoint x="16" y="380" as="sourcePoint" />
            <mxPoint x="20" y="370" as="targetPoint" />
          </mxGeometry>
        </mxCell>
      </root>
    </mxGraphModel>
  </diagram>
</mxfile>
